<svg xmlns="http://www.w3.org/2000/svg" viewBox="0 0 1024 1024" role="img" aria-label="Bilibili">
  <rect width="1024" height="1024" rx="210" fill="#00aeec"/>
  <path fill="#fff" d="M314 256 205 147a44 44 0 0 1 62-62l147 147h196L757 85a44 44 0 1 1 62 62L710 256h62c89 0 162 73 162 162v294c0 89-73 162-162 162H252c-89 0-162-73-162-162V418c0-89 73-162 162-162h62Zm-62 96c-36 0-66 30-66 66v294c0 36 30 66 66 66h520c36 0 66-30 66-66V418c0-36-30-66-66-66H252Zm132 165c31 0 56 25 56 56s-25 56-56 56-56-25-56-56 25-56 56-56Zm256 0c31 0 56 25 56 56s-25 56-56 56-56-25-56-56 25-56 56-56Z"/>
</svg>
